<svg id="Component_1_1" data-name="Component 1 – 1" xmlns="http://www.w3.org/2000/svg" width="74" height="87" viewBox="0 0 74 87">
  <ellipse id="Ellipse_5" data-name="Ellipse 5" cx="37" cy="43.5" rx="37" ry="43.5" fill="#fff"/>
  <path id="Icon_material-fingerprint" data-name="Icon material-fingerprint" d="M47.963,10.7a1.3,1.3,0,0,1-.675-.187,32.575,32.575,0,0,0-32.689,0,1.448,1.448,0,0,1-2-.624,1.631,1.631,0,0,1,.587-2.121A35.4,35.4,0,0,1,48.638,7.74a1.575,1.575,0,0,1,.616,2.09A1.434,1.434,0,0,1,47.963,10.7ZM5.972,27.076a1.466,1.466,0,0,1-.851-.281,1.618,1.618,0,0,1-.352-2.183,30.977,30.977,0,0,1,11-10.2,32.089,32.089,0,0,1,30.254-.031,31.079,31.079,0,0,1,11,10.136,1.623,1.623,0,0,1-.352,2.183,1.409,1.409,0,0,1-2.054-.374,28.114,28.114,0,0,0-9.948-9.169,29.292,29.292,0,0,0-27.583.031,28.42,28.42,0,0,0-9.977,9.231,1.262,1.262,0,0,1-1.144.655Zm18.34,37.643a1.339,1.339,0,0,1-1.027-.468,31.4,31.4,0,0,1-5.9-8.233,29.088,29.088,0,0,1-3.081-13.535,16.61,16.61,0,1,1,33.218,0,1.47,1.47,0,1,1-2.934,0,13.674,13.674,0,1,0-27.349,0,25.671,25.671,0,0,0,2.729,12.007A29.383,29.383,0,0,0,25.4,62.037a1.675,1.675,0,0,1,0,2.214A1.56,1.56,0,0,1,24.312,64.719Zm21.04-5.77a15.131,15.131,0,0,1-9.1-2.776,16.9,16.9,0,0,1-6.984-13.691,1.47,1.47,0,1,1,2.934,0,13.646,13.646,0,0,0,5.693,11.1A12.313,12.313,0,0,0,45.352,55.8a18.281,18.281,0,0,0,3.052-.312,1.474,1.474,0,0,1,1.7,1.279,1.548,1.548,0,0,1-1.2,1.809,18.889,18.889,0,0,1-3.551.374Zm-5.9,6.424a1.624,1.624,0,0,1-.381-.062,22.594,22.594,0,0,1-10.916-6.549,23.5,23.5,0,0,1-6.368-16.28,9.039,9.039,0,1,1,18.076,0,6.1,6.1,0,0,0,12.207,0,21.2,21.2,0,1,0-42.4,0,32.741,32.741,0,0,0,1.966,11.258,1.551,1.551,0,0,1-.851,2,1.432,1.432,0,0,1-1.878-.9,36.686,36.686,0,0,1-2.142-12.35,24.684,24.684,0,0,1,2-10.1A24.166,24.166,0,0,1,55.006,42.451a9.039,9.039,0,1,1-18.076,0,6.1,6.1,0,0,0-12.207,0A20.28,20.28,0,0,0,30.21,56.517a19.7,19.7,0,0,0,9.6,5.77,1.561,1.561,0,0,1,1.027,1.9,1.454,1.454,0,0,1-1.379,1.185Z" transform="translate(6.1 9.313)"/>
</svg>
