<svg xmlns="http://www.w3.org/2000/svg" width="29.923" height="20.057" viewBox="0 0 29.923 20.057">
  <path id="Icon_open-random" data-name="Icon open-random" d="M22.442,0V2.507h-1.87a3.978,3.978,0,0,0-2.918.953L12.381,7.923,6.658,3.46A4.268,4.268,0,0,0,3.74,2.507H0V5.014H3.74c-.187,0,.037.1.112.075l6.1,4.789L3.74,15.043H0V17.55H3.74A3.978,3.978,0,0,0,6.658,16.6l5.723-4.789L18.59,16.6a4.268,4.268,0,0,0,2.918.953h.935v2.507L29.923,16.3l-7.481-3.761v2.507H21.62c-.037-.025-.187-.1-.224-.075L14.849,9.8l5.723-4.789h1.87V7.522l7.481-3.761L22.442,0Z" fill="#d7d7d7"/>
</svg>
