<svg xmlns="http://www.w3.org/2000/svg" width="27" height="19.115" viewBox="0 0 27 19.115">
  <g id="Icon_ionic-ios-repeat" data-name="Icon ionic-ios-repeat" transform="translate(-4.5 -8.439)">
    <path id="Path_2" data-name="Path 2" d="M23.667,11.074,21.3,8.726a.985.985,0,0,0-.956-.253.84.84,0,0,0-.246.105.981.981,0,0,0-.478.921,1.031,1.031,0,0,0,.3.64l1.125,1.118H9.984A5.5,5.5,0,0,0,4.5,16.734v1.125a.987.987,0,0,0,.984.984h0a.987.987,0,0,0,.984-.984V16.734a3.529,3.529,0,0,1,3.516-3.516H20.911l-1.125,1.118a1,1,0,0,0-.3.612.991.991,0,0,0,.984,1.083.973.973,0,0,0,.7-.288l2.5-2.489a1.521,1.521,0,0,0,.457-1.09A1.568,1.568,0,0,0,23.667,11.074Z" fill="#d7d8d7"/>
    <path id="Path_3" data-name="Path 3" d="M30.516,17.156h0a.987.987,0,0,0-.984.984v1.125a3.529,3.529,0,0,1-3.516,3.516H15.089l1.125-1.118a1,1,0,0,0,.3-.619.991.991,0,0,0-.984-1.083.973.973,0,0,0-.7.288l-2.5,2.489a1.528,1.528,0,0,0,0,2.18L14.7,27.267a.985.985,0,0,0,.956.253.84.84,0,0,0,.246-.105.981.981,0,0,0,.478-.921,1.031,1.031,0,0,0-.3-.64l-1.125-1.118H26.016A5.491,5.491,0,0,0,31.5,19.252V18.127A.984.984,0,0,0,30.516,17.156Z" fill="#d7d8d7"/>
  </g>
</svg>
