<svg xmlns="http://www.w3.org/2000/svg" width="76" height="76" viewBox="0 0 76 76">
  <path id="Icon_simple-instagram" data-name="Icon simple-instagram" d="M38,0C27.677,0,26.388.048,22.334.228A28.02,28.02,0,0,0,13.11,2,18.609,18.609,0,0,0,6.378,6.378,18.541,18.541,0,0,0,1.995,13.11,27.938,27.938,0,0,0,.228,22.335C.038,26.388,0,27.677,0,38S.047,49.612.228,53.666A28.038,28.038,0,0,0,1.995,62.89a18.635,18.635,0,0,0,4.383,6.732,18.582,18.582,0,0,0,6.732,4.383,28.055,28.055,0,0,0,9.225,1.767C26.388,75.962,27.677,76,38,76s11.612-.047,15.665-.228A28.12,28.12,0,0,0,62.89,74,19.42,19.42,0,0,0,74,62.89a28.038,28.038,0,0,0,1.767-9.224C75.962,49.612,76,48.323,76,38s-.047-11.612-.228-15.665A28.1,28.1,0,0,0,74,13.11a18.65,18.65,0,0,0-4.383-6.732A18.515,18.515,0,0,0,62.89,2,27.956,27.956,0,0,0,53.666.228C49.612.038,48.323,0,38,0Zm0,6.84c10.143,0,11.353.051,15.358.225A20.936,20.936,0,0,1,60.41,8.379a12.505,12.505,0,0,1,7.214,7.21,20.98,20.98,0,0,1,1.308,7.052c.181,4.009.222,5.212.222,15.358s-.048,11.353-.234,15.358a21.385,21.385,0,0,1-1.333,7.052,12.066,12.066,0,0,1-2.847,4.376,11.855,11.855,0,0,1-4.37,2.837,21.135,21.135,0,0,1-7.077,1.308c-4.034.181-5.222.222-15.387.222s-11.356-.048-15.387-.234a21.547,21.547,0,0,1-7.081-1.333,11.768,11.768,0,0,1-4.367-2.847,11.538,11.538,0,0,1-2.85-4.37,21.566,21.566,0,0,1-1.33-7.077C6.748,49.3,6.7,48.07,6.7,37.953s.051-11.356.193-15.393a21.541,21.541,0,0,1,1.33-7.074,11.264,11.264,0,0,1,2.85-4.373,11.24,11.24,0,0,1,4.367-2.844,21.032,21.032,0,0,1,7.033-1.333c4.038-.143,5.225-.19,15.387-.19L38,6.84Zm0,11.647A19.513,19.513,0,1,0,57.513,38,19.512,19.512,0,0,0,38,18.487Zm0,32.18A12.667,12.667,0,1,1,50.667,38,12.663,12.663,0,0,1,38,50.667ZM62.846,17.718a4.56,4.56,0,1,1-4.56-4.557A4.563,4.563,0,0,1,62.846,17.718Z"/>
</svg>
