<svg xmlns="http://www.w3.org/2000/svg" width="76" height="76" viewBox="0 0 76 76">
  <path id="Icon_awesome-snapchat" data-name="Icon awesome-snapchat" d="M38,.562a38,38,0,1,0,38,38A37.993,37.993,0,0,0,38,.562ZM63.972,52.491c-.536,1.241-2.773,2.145-6.865,2.789a18.829,18.829,0,0,0-.659,2.436,1.18,1.18,0,0,1-1.241.9h-.031c-.95,0-1.961-.444-3.953-.444-2.7,0-3.631.613-5.731,2.1-2.222,1.578-4.352,2.927-7.539,2.789-3.218.245-5.915-1.716-7.431-2.789-2.115-1.486-3.034-2.1-5.731-2.1a39.059,39.059,0,0,0-3.953.475,1.217,1.217,0,0,1-1.272-.919,19.236,19.236,0,0,0-.659-2.452c-2.115-.322-6.865-1.149-6.972-3.279a1.084,1.084,0,0,1,.9-1.134c7.094-1.165,10.281-8.443,10.419-8.749,0-.015.015-.031.031-.046a2.292,2.292,0,0,0,.245-1.915c-.521-1.21-2.743-1.64-3.677-2.023-2.421-.95-2.758-2.053-2.6-2.8a2.621,2.621,0,0,1,3.356-1.578,5.773,5.773,0,0,0,2.406.644,2.148,2.148,0,0,0,1.011-.215c-.215-3.662-.72-8.887.582-11.814a13.914,13.914,0,0,1,12.886-8.32c.092,0,.935-.015,1.027-.015a13.791,13.791,0,0,1,12.917,8.32c1.3,2.927.8,8.136.582,11.814a1.927,1.927,0,0,0,.873.215,6.045,6.045,0,0,0,2.252-.644,2.8,2.8,0,0,1,2.084,0,2.132,2.132,0,0,1,1.594,1.823c.015,1-.873,1.854-2.635,2.544-.215.092-.475.169-.751.26-1,.322-2.513.8-2.911,1.762a2.35,2.35,0,0,0,.245,1.915c.015.015.015.031.031.046.138.306,3.325,7.585,10.419,8.749a1.177,1.177,0,0,1,.751,1.655Z" transform="translate(0 -0.563)"/>
</svg>
