<svg xmlns="http://www.w3.org/2000/svg" xmlns:xlink="http://www.w3.org/1999/xlink" width="308" height="255" viewBox="0 0 308 255">
  <defs>
    <clipPath id="clip-path">
      <rect width="308" height="255" fill="none"/>
    </clipPath>
  </defs>
  <g id="Repeat_Grid_2" data-name="Repeat Grid 2" clip-path="url(#clip-path)">
    <g transform="translate(-154 -2039)">
      <circle id="Ellipse_1" data-name="Ellipse 1" cx="8.5" cy="8.5" r="8.5" transform="translate(154 2039)" fill="#99b19f"/>
    </g>
    <g transform="translate(-102 -2039)">
      <circle id="Ellipse_1-2" data-name="Ellipse 1" cx="8.5" cy="8.5" r="8.5" transform="translate(154 2039)" fill="#99b19f"/>
    </g>
    <g transform="translate(-50 -2039)">
      <circle id="Ellipse_1-3" data-name="Ellipse 1" cx="8.5" cy="8.5" r="8.5" transform="translate(154 2039)" fill="#99b19f"/>
    </g>
    <g transform="translate(2 -2039)">
      <circle id="Ellipse_1-4" data-name="Ellipse 1" cx="8.5" cy="8.5" r="8.5" transform="translate(154 2039)" fill="#99b19f"/>
    </g>
    <g transform="translate(54 -2039)">
      <circle id="Ellipse_1-5" data-name="Ellipse 1" cx="8.5" cy="8.5" r="8.5" transform="translate(154 2039)" fill="#99b19f"/>
    </g>
    <g transform="translate(106 -2039)">
      <circle id="Ellipse_1-6" data-name="Ellipse 1" cx="8.5" cy="8.5" r="8.5" transform="translate(154 2039)" fill="#99b19f"/>
    </g>
    <g transform="translate(-154 -2002)">
      <circle id="Ellipse_1-7" data-name="Ellipse 1" cx="8.5" cy="8.5" r="8.5" transform="translate(154 2039)" fill="#99b19f"/>
    </g>
    <g transform="translate(-102 -2002)">
      <circle id="Ellipse_1-8" data-name="Ellipse 1" cx="8.5" cy="8.5" r="8.5" transform="translate(154 2039)" fill="#99b19f"/>
    </g>
    <g transform="translate(-50 -2002)">
      <circle id="Ellipse_1-9" data-name="Ellipse 1" cx="8.5" cy="8.5" r="8.5" transform="translate(154 2039)" fill="#99b19f"/>
    </g>
    <g transform="translate(2 -2002)">
      <circle id="Ellipse_1-10" data-name="Ellipse 1" cx="8.5" cy="8.5" r="8.5" transform="translate(154 2039)" fill="#99b19f"/>
    </g>
    <g transform="translate(54 -2002)">
      <circle id="Ellipse_1-11" data-name="Ellipse 1" cx="8.5" cy="8.5" r="8.5" transform="translate(154 2039)" fill="#99b19f"/>
    </g>
    <g transform="translate(106 -2002)">
      <circle id="Ellipse_1-12" data-name="Ellipse 1" cx="8.5" cy="8.5" r="8.5" transform="translate(154 2039)" fill="#99b19f"/>
    </g>
    <g transform="translate(-154 -1965)">
      <circle id="Ellipse_1-13" data-name="Ellipse 1" cx="8.5" cy="8.5" r="8.5" transform="translate(154 2039)" fill="#99b19f"/>
    </g>
    <g transform="translate(-102 -1965)">
      <circle id="Ellipse_1-14" data-name="Ellipse 1" cx="8.5" cy="8.5" r="8.5" transform="translate(154 2039)" fill="#99b19f"/>
    </g>
    <g transform="translate(-50 -1965)">
      <circle id="Ellipse_1-15" data-name="Ellipse 1" cx="8.5" cy="8.5" r="8.5" transform="translate(154 2039)" fill="#99b19f"/>
    </g>
    <g transform="translate(2 -1965)">
      <circle id="Ellipse_1-16" data-name="Ellipse 1" cx="8.5" cy="8.5" r="8.5" transform="translate(154 2039)" fill="#99b19f"/>
    </g>
    <g transform="translate(54 -1965)">
      <circle id="Ellipse_1-17" data-name="Ellipse 1" cx="8.5" cy="8.5" r="8.5" transform="translate(154 2039)" fill="#99b19f"/>
    </g>
    <g transform="translate(106 -1965)">
      <circle id="Ellipse_1-18" data-name="Ellipse 1" cx="8.5" cy="8.5" r="8.5" transform="translate(154 2039)" fill="#99b19f"/>
    </g>
    <g transform="translate(-154 -1928)">
      <circle id="Ellipse_1-19" data-name="Ellipse 1" cx="8.5" cy="8.5" r="8.5" transform="translate(154 2039)" fill="#99b19f"/>
    </g>
    <g transform="translate(-102 -1928)">
      <circle id="Ellipse_1-20" data-name="Ellipse 1" cx="8.5" cy="8.5" r="8.5" transform="translate(154 2039)" fill="#99b19f"/>
    </g>
    <g transform="translate(-50 -1928)">
      <circle id="Ellipse_1-21" data-name="Ellipse 1" cx="8.5" cy="8.5" r="8.5" transform="translate(154 2039)" fill="#99b19f"/>
    </g>
    <g transform="translate(2 -1928)">
      <circle id="Ellipse_1-22" data-name="Ellipse 1" cx="8.5" cy="8.5" r="8.5" transform="translate(154 2039)" fill="#99b19f"/>
    </g>
    <g transform="translate(54 -1928)">
      <circle id="Ellipse_1-23" data-name="Ellipse 1" cx="8.5" cy="8.5" r="8.5" transform="translate(154 2039)" fill="#99b19f"/>
    </g>
    <g transform="translate(106 -1928)">
      <circle id="Ellipse_1-24" data-name="Ellipse 1" cx="8.5" cy="8.5" r="8.5" transform="translate(154 2039)" fill="#99b19f"/>
    </g>
    <g transform="translate(-154 -1891)">
      <circle id="Ellipse_1-25" data-name="Ellipse 1" cx="8.5" cy="8.5" r="8.5" transform="translate(154 2039)" fill="#99b19f"/>
    </g>
    <g transform="translate(-102 -1891)">
      <circle id="Ellipse_1-26" data-name="Ellipse 1" cx="8.5" cy="8.5" r="8.5" transform="translate(154 2039)" fill="#99b19f"/>
    </g>
    <g transform="translate(-50 -1891)">
      <circle id="Ellipse_1-27" data-name="Ellipse 1" cx="8.5" cy="8.5" r="8.5" transform="translate(154 2039)" fill="#99b19f"/>
    </g>
    <g transform="translate(2 -1891)">
      <circle id="Ellipse_1-28" data-name="Ellipse 1" cx="8.5" cy="8.5" r="8.5" transform="translate(154 2039)" fill="#99b19f"/>
    </g>
    <g transform="translate(54 -1891)">
      <circle id="Ellipse_1-29" data-name="Ellipse 1" cx="8.5" cy="8.5" r="8.5" transform="translate(154 2039)" fill="#99b19f"/>
    </g>
    <g transform="translate(106 -1891)">
      <circle id="Ellipse_1-30" data-name="Ellipse 1" cx="8.5" cy="8.5" r="8.5" transform="translate(154 2039)" fill="#99b19f"/>
    </g>
    <g transform="translate(-154 -1854)">
      <circle id="Ellipse_1-31" data-name="Ellipse 1" cx="8.5" cy="8.5" r="8.5" transform="translate(154 2039)" fill="#99b19f"/>
    </g>
    <g transform="translate(-102 -1854)">
      <circle id="Ellipse_1-32" data-name="Ellipse 1" cx="8.5" cy="8.5" r="8.5" transform="translate(154 2039)" fill="#99b19f"/>
    </g>
    <g transform="translate(-50 -1854)">
      <circle id="Ellipse_1-33" data-name="Ellipse 1" cx="8.5" cy="8.5" r="8.5" transform="translate(154 2039)" fill="#99b19f"/>
    </g>
    <g transform="translate(2 -1854)">
      <circle id="Ellipse_1-34" data-name="Ellipse 1" cx="8.5" cy="8.5" r="8.5" transform="translate(154 2039)" fill="#99b19f"/>
    </g>
    <g transform="translate(54 -1854)">
      <circle id="Ellipse_1-35" data-name="Ellipse 1" cx="8.5" cy="8.5" r="8.5" transform="translate(154 2039)" fill="#99b19f"/>
    </g>
    <g transform="translate(106 -1854)">
      <circle id="Ellipse_1-36" data-name="Ellipse 1" cx="8.5" cy="8.5" r="8.5" transform="translate(154 2039)" fill="#99b19f"/>
    </g>
    <g transform="translate(-154 -1817)">
      <circle id="Ellipse_1-37" data-name="Ellipse 1" cx="8.5" cy="8.5" r="8.5" transform="translate(154 2039)" fill="#99b19f"/>
    </g>
    <g transform="translate(-102 -1817)">
      <circle id="Ellipse_1-38" data-name="Ellipse 1" cx="8.5" cy="8.5" r="8.5" transform="translate(154 2039)" fill="#99b19f"/>
    </g>
    <g transform="translate(-50 -1817)">
      <circle id="Ellipse_1-39" data-name="Ellipse 1" cx="8.5" cy="8.5" r="8.5" transform="translate(154 2039)" fill="#99b19f"/>
    </g>
    <g transform="translate(2 -1817)">
      <circle id="Ellipse_1-40" data-name="Ellipse 1" cx="8.5" cy="8.5" r="8.5" transform="translate(154 2039)" fill="#99b19f"/>
    </g>
    <g transform="translate(54 -1817)">
      <circle id="Ellipse_1-41" data-name="Ellipse 1" cx="8.5" cy="8.5" r="8.5" transform="translate(154 2039)" fill="#99b19f"/>
    </g>
    <g transform="translate(106 -1817)">
      <circle id="Ellipse_1-42" data-name="Ellipse 1" cx="8.5" cy="8.5" r="8.5" transform="translate(154 2039)" fill="#99b19f"/>
    </g>
  </g>
</svg>
